<svg xmlns="http://www.w3.org/2000/svg" viewBox="0 0 275.1 80.5"><defs><style>.cls-1{fill:#007e57;}.cls-2{fill:#ffe22e;}</style></defs><g id="Layer_2" data-name="Layer 2"><g id="Layer_1-2" data-name="Layer 1"><path class="cls-1" d="M0,0V80.5H250.11v0c.49,0,1,0,1.49,0a23.49,23.49,0,0,0,23.45-22h.05V0Z"></path><path class="cls-2" d="M33.17,27a11,11,0,0,0-8.52,3.66,13,13,0,0,0-3.33,9.12,12.29,12.29,0,0,0,3.44,9,11.72,11.72,0,0,0,8.73,3.49A11.65,11.65,0,0,0,43.82,47L39,44.61A7.52,7.52,0,0,1,33.46,47a6.67,6.67,0,0,1-4.38-1.46,6.42,6.42,0,0,1-2.18-4.11H45.34l0-1.15A13.18,13.18,0,0,0,42,30.62,11.49,11.49,0,0,0,33.17,27Zm-6,9.62a7.66,7.66,0,0,1,2.1-3.09,6.66,6.66,0,0,1,4.19-1.4,6.45,6.45,0,0,1,3.82,1.2,5.88,5.88,0,0,1,2.29,3.29Z"></path><path class="cls-2" d="M63.44,27.61V39.38a17.07,17.07,0,0,1-.35,4.44,4.16,4.16,0,0,1-6.29,2.09,4.6,4.6,0,0,1-1.67-3.06,23.91,23.91,0,0,1-.19-3.67V27.61H49.11v10a31.65,31.65,0,0,0,.67,8q2,6.7,9.37,6.7a10.45,10.45,0,0,0,5.48-1.36v.74h4.6v-24H63.44Z"></path><path class="cls-2" d="M80,30.64v-3h-5v24h5.73V42l0-1.18q-.09-4.87.92-6.75c.6-1.15,1.34-1.72,2.22-1.72a3.76,3.76,0,0,1,1.66.53l1.79-5.22A5.21,5.21,0,0,0,85.06,27Q81.66,27,80,30.64Z"></path><path class="cls-2" d="M106.43,28.68A11.71,11.71,0,0,0,100.34,27a11.18,11.18,0,0,0-7.94,3.27,12.42,12.42,0,0,0-3.93,9.4,12.58,12.58,0,0,0,3.45,8.94,11.13,11.13,0,0,0,8.44,3.68A11.81,11.81,0,0,0,110.89,46a13.26,13.26,0,0,0,1.6-6.37,13,13,0,0,0-1.6-6.31A12,12,0,0,0,106.43,28.68ZM105,44.59a6.05,6.05,0,0,1-9.08,0,7.37,7.37,0,0,1-1.66-5,7.31,7.31,0,0,1,1.68-4.92,5.75,5.75,0,0,1,4.53-2,5.66,5.66,0,0,1,4.53,2,7.3,7.3,0,0,1,1.7,5A7.3,7.3,0,0,1,105,44.59Z"></path><path class="cls-2" d="M137.38,27a9.68,9.68,0,0,0-7.23,3.27V27.61h-5.73V60.46h5.73V49.12a9.77,9.77,0,0,0,15-.69,13.46,13.46,0,0,0,3-8.75,13.85,13.85,0,0,0-2.86-8.82A9.61,9.61,0,0,0,137.38,27Zm3.32,17.6a5.61,5.61,0,0,1-4.53,2.14,5.78,5.78,0,0,1-4.62-2.09,7.7,7.7,0,0,1-1.66-5,7.39,7.39,0,0,1,1.68-5,5.82,5.82,0,0,1,4.6-2,5.61,5.61,0,0,1,4.53,2.07,7.43,7.43,0,0,1,1.68,5A7.54,7.54,0,0,1,140.7,44.59Z"></path><path class="cls-2" d="M163.66,27a11,11,0,0,0-8.51,3.66,13,13,0,0,0-3.34,9.12,12.33,12.33,0,0,0,3.44,9A12.71,12.71,0,0,0,174.31,47l-4.83-2.39A7.51,7.51,0,0,1,164,47a6.63,6.63,0,0,1-4.37-1.46,6.43,6.43,0,0,1-2.19-4.11h18.44l0-1.15a13.18,13.18,0,0,0-3.39-9.61A11.49,11.49,0,0,0,163.66,27Zm-6,9.62a7.66,7.66,0,0,1,2.1-3.09,6.66,6.66,0,0,1,4.2-1.4,6.44,6.44,0,0,1,3.81,1.2A5.83,5.83,0,0,1,170,36.61Z"></path><path class="cls-2" d="M197.39,30.26A10.13,10.13,0,0,0,190.13,27a9.8,9.8,0,0,0-7.27,3.14,12.66,12.66,0,0,0-3.37,9.2,12.88,12.88,0,0,0,3,8.66,10,10,0,0,0,7.95,3.67,9.21,9.21,0,0,0,6.94-3,10.49,10.49,0,0,1-.57,4.12q-1.32,2.72-5.73,2.71c-2.4,0-4.16-.69-5.3-2.08h-6.32a10.89,10.89,0,0,0,2.34,4.18q3.19,3.47,9.54,3.47t9.45-3.89q2.34-2.89,2.34-9V27.61h-5.75Zm-1.36,14a5.64,5.64,0,0,1-4.47,2A5.92,5.92,0,0,1,187,44.24a7,7,0,0,1-1.77-4.89A6.78,6.78,0,0,1,187,34.56a6.28,6.28,0,0,1,9,0,7,7,0,0,1,1.71,4.85A7,7,0,0,1,196,44.22Z"></path><path class="cls-2" d="M225,30.26a9.79,9.79,0,0,0-15.1.6A13.79,13.79,0,0,0,207,39.68a13.4,13.4,0,0,0,3,8.75,9.75,9.75,0,0,0,15,.69v2.54h5.75v-24H225ZM223.6,44.64A5.74,5.74,0,0,1,219,46.73a5.58,5.58,0,0,1-4.53-2.14,7.54,7.54,0,0,1-1.68-5,7.47,7.47,0,0,1,1.66-5A5.64,5.64,0,0,1,219,32.58a5.73,5.73,0,0,1,4.57,2,7.38,7.38,0,0,1,1.72,5A7.64,7.64,0,0,1,223.6,44.64Z"></path><polygon class="cls-2" points="253.78 27.61 236.2 27.61 236.2 32.74 244.98 32.74 234.63 51.66 253.19 51.66 253.19 46.53 243.47 46.53 253.78 27.61"></polygon><polygon class="cls-2" points="116.23 39.6 118.37 45.33 120.5 39.6 118.37 33.88 116.23 39.6"></polygon></g></g></svg>